<svg xmlns="http://www.w3.org/2000/svg" xmlns:xlink="http://www.w3.org/1999/xlink" width="940" zoomAndPan="magnify" viewBox="0 0 705 591.000005" height="788" preserveAspectRatio="xMidYMid meet" version="1.0"><defs><filter x="0%" y="0%" width="100%" height="100%" id="id1"><feColorMatrix values="0 0 0 0 1 0 0 0 0 1 0 0 0 0 1 0 0 0 1 0" color-interpolation-filters="sRGB"/></filter><clipPath id="id2"><path d="M 0.59375 0 L 704.402344 0 L 704.402344 590 L 0.59375 590 Z M 0.59375 0 " clip-rule="nonzero"/></clipPath><clipPath id="id3"><path d="M 0.59375 111 L 704.402344 111 L 704.402344 496 L 0.59375 496 Z M 0.59375 111 " clip-rule="nonzero"/></clipPath><mask id="id4"><g filter="url(#id1)"><rect x="-70.5" width="846" fill="rgb(0%, 0%, 0%)" y="-59.100001" height="709.200006" fill-opacity="0.1882"/></g></mask><clipPath id="id5"><path d="M 0.59375 1.582031 L 704.402344 1.582031 L 704.402344 384 L 0.59375 384 Z M 0.59375 1.582031 " clip-rule="nonzero"/></clipPath><clipPath id="id6"><rect x="0" width="705" y="0" height="385"/></clipPath></defs><g clip-path="url(#id2)"><path fill="transparent" d="M 0.59375 0 L 0.59375 590 L 704.40625 590 L 704.40625 0 Z M 0.59375 0 " fill-opacity="1" fill-rule="nonzero"/></g><g clip-path="url(#id3)"><g mask="url(#id4)"><g transform="matrix(1, 0, 0, 1, 0.000000000000000111, 111)"><g clip-path="url(#id6)"><g clip-path="url(#id5)"><path fill="rgb(100%, 100%, 100%)" d="M 704.40625 383.882812 L 704.40625 284.5625 L 585.957031 192.886719 L 704.40625 101.207031 L 704.40625 1.886719 L 457.574219 192.886719 Z M 699.4375 98.914062 L 577.933594 192.886719 L 699.4375 287.238281 L 699.4375 373.953125 L 465.597656 193.265625 L 699.4375 12.199219 Z M 475.914062 383.882812 L 475.914062 284.5625 L 357.46875 192.886719 L 475.914062 101.207031 L 475.914062 1.886719 L 229.085938 192.886719 Z M 470.949219 98.914062 L 349.441406 192.886719 L 470.949219 287.238281 L 470.949219 373.953125 L 237.109375 193.265625 L 470.949219 12.199219 Z M 247.425781 383.882812 L 247.425781 284.5625 L 128.976562 192.886719 L 247.425781 101.207031 L 247.425781 1.886719 L 0.59375 192.886719 Z M 242.457031 98.914062 L 120.953125 192.886719 L 242.457031 286.855469 L 242.457031 373.953125 L 8.621094 193.265625 L 242.457031 12.582031 Z M 242.457031 98.914062 " fill-opacity="1" fill-rule="nonzero"/></g></g></g></g></g></svg>